<svg version="1.1" xmlns="http://www.w3.org/2000/svg" xmlns:xlink="http://www.w3.org/1999/xlink" width="1497.63902" height="232.69481" viewBox="0,0,1497.63902,232.69481"><g transform="translate(508.81952,-63.65269)"><g data-paper-data="{&quot;isPaintingLayer&quot;:true}" fill-rule="nonzero" stroke-linejoin="miter" stroke-miterlimit="10" stroke-dasharray="" stroke-dashoffset="0" style="mix-blend-mode: normal"><path d="M-508.81952,292.73773v-229.07611h1497.63902v229.07611z" fill="#2d2d2d" stroke="none" stroke-width="0" stroke-linecap="butt"/><path d="M540.39223,209.53554v-114.53805h393.31935v114.53805z" fill="#ffffff" stroke="none" stroke-width="0" stroke-linecap="butt"/><text transform="translate(593.33906,185.61688) scale(1.88799,1.88799)" font-size="40" xml:space="preserve" fill="#000000" fill-rule="nonzero" stroke="none" stroke-width="1" stroke-linecap="butt" stroke-linejoin="miter" stroke-miterlimit="10" stroke-dasharray="" stroke-dashoffset="0" font-family="Sans Serif" font-weight="normal" text-anchor="start" style="mix-blend-mode: normal"><tspan x="0" dy="0">Kil0y</tspan><tspan x="0" dy="46.150000000000006px"> </tspan></text><text transform="translate(770.54887,194.7706) scale(2.90169,2.90169)" font-size="40" xml:space="preserve" fill="#000000" fill-rule="nonzero" stroke="none" stroke-width="1" stroke-linecap="butt" stroke-linejoin="miter" stroke-miterlimit="10" stroke-dasharray="" stroke-dashoffset="0" font-family="Sans Serif" font-weight="normal" text-anchor="start" style="mix-blend-mode: normal"><tspan x="0" dy="0">OS</tspan></text><text transform="translate(546.74399,257.50107) scale(0.57314,0.57314)" font-size="40" xml:space="preserve" fill="#ffffff" fill-rule="nonzero" stroke="none" stroke-width="1" stroke-linecap="butt" stroke-linejoin="miter" stroke-miterlimit="10" stroke-dasharray="" stroke-dashoffset="0" font-family="Sans Serif" font-weight="normal" text-anchor="start" style="mix-blend-mode: normal"><tspan x="0" dy="0">A 64-bit microkernel operating system </tspan></text><path d="M-139.09214,184.37425c0,-8.09904 6.56557,-14.66459 14.66457,-14.66459c8.09904,0 14.66456,6.56555 14.66456,14.66459c0,8.09904 -6.56552,14.66456 -14.66456,14.66456c-8.09904,0 -14.66457,-6.56552 -14.66457,-14.66456z" fill="#ffffff" stroke="none" stroke-width="0" stroke-linecap="butt"/><path d="M287.53085,172.36237c0,-3.58203 2.90384,-6.48587 6.48587,-6.48587c3.58203,0 6.48587,2.90384 6.48587,6.48587c0,3.58203 -2.90382,6.48587 -6.48587,6.48587c-3.58203,0 -6.48587,-2.90382 -6.48587,-6.48587z" fill="#ffffff" stroke="#ffffff" stroke-width="0.5" stroke-linecap="butt"/><path d="M-226.15088,208.68331c0,-2.86565 2.32305,-5.1887 5.1887,-5.1887c2.86564,0 5.1887,2.32305 5.1887,5.1887c0,2.86565 -2.32307,5.18872 -5.1887,5.18872c-2.86564,0 -5.1887,-2.32307 -5.1887,-5.18872z" fill="#ffffff" stroke="#ffffff" stroke-width="0.5" stroke-linecap="butt"/><path d="M-61.72062,64.44296l-63.21203,119.94079l-95.62848,24.31233l-35.65806,83.20217" fill="none" stroke="#ffffff" stroke-width="0.5" stroke-linecap="round"/><path d="M-206.80647,63.90269l81.33354,122.10188l419.25249,-12.96656l42.68162,118.86023" fill="none" stroke="#ffffff" stroke-width="0.5" stroke-linecap="round"/><path d="M495.3017,63.90269l-203.14296,108.05477l-131.28654,-106.97423" fill="none" stroke="#ffffff" stroke-width="0.5" stroke-linecap="round"/><path d="M-220.8536,205.99471l-287.42567,-124.26299" fill="none" stroke="#ffffff" stroke-width="0.5" stroke-linecap="round"/><path d="M-136.03062,179.52129l7.02356,10.80548" fill="none" stroke="#ffffff" stroke-width="0.5" stroke-linecap="round"/><path d="M-124.63322,185.00392l229.40858,106.39239" fill="none" stroke="#ffffff" stroke-width="0.5" stroke-linecap="round"/><text transform="translate(-107.4232,173.33892) scale(0.17146,0.17146)" font-size="40" xml:space="preserve" fill="#ffffff" fill-rule="nonzero" stroke="none" stroke-width="1" stroke-linecap="butt" stroke-linejoin="miter" stroke-miterlimit="10" stroke-dasharray="" stroke-dashoffset="0" font-family="Pixel" font-weight="normal" text-anchor="start" style="mix-blend-mode: normal"><tspan x="0" dy="0">core-kernel</tspan></text><text transform="translate(247.8699,189.44366) scale(0.21895,0.21895)" font-size="40" xml:space="preserve" fill="#ffffff" fill-rule="nonzero" stroke="none" stroke-width="1" stroke-linecap="butt" stroke-linejoin="miter" stroke-miterlimit="10" stroke-dasharray="" stroke-dashoffset="0" font-family="Pixel" font-weight="normal" text-anchor="start" style="mix-blend-mode: normal"><tspan x="0" dy="0">dev-ps2</tspan></text><text transform="translate(-228.86225,194.76864) scale(0.18051,0.18051)" font-size="40" xml:space="preserve" fill="#ffffff" fill-rule="nonzero" stroke="none" stroke-width="1" stroke-linecap="butt" stroke-linejoin="miter" stroke-miterlimit="10" stroke-dasharray="" stroke-dashoffset="0" font-family="Pixel" font-weight="normal" text-anchor="start" style="mix-blend-mode: normal"><tspan x="0" dy="0">node-001</tspan></text></g></g></svg>